<?xml version="1.0" encoding="utf-8" ?>
<svg baseProfile="tiny" height="100%" version="1.2" width="100%" xmlns="http://www.w3.org/2000/svg" xmlns:ev="http://www.w3.org/2001/xml-events" xmlns:xlink="http://www.w3.org/1999/xlink"><defs /><polyline fill="none" points="34.0,24.3994 33.8,24.3994 33.6,24.3994 33.4006,24.2 33.4,24.1994 33.2,24.1994 33.0,24.1994 32.8,24.1994 32.6006,24.0 32.6,23.9994 32.4,23.9994 32.2006,23.8 32.2,23.7994 32.0006,23.6 32.0006,23.4 32.0006,23.2 32.0006,23.0 32.0006,22.8 32.0006,22.6 32.0006,22.4 32.0006,22.2 32.0006,22.0 32.0006,21.8 32.0006,21.6 32.0006,21.4 32.0006,21.2 32.0006,21.0 32.0006,20.8 32.0006,20.6 32.0006,20.4 32.0006,20.2 32.0006,20.0 32.0006,19.8 32.0006,19.6 32.0006,19.4 32.0006,19.2 32.0006,19.0 32.0006,18.8 32.0006,18.6 32.0006,18.4 32.0006,18.2 32.0006,18.0 32.0006,17.8 32.0006,17.6 32.0006,17.4 32.0006,17.2 32.0006,17.0 32.0006,16.8 32.0006,16.6 32.0006,16.4 32.0006,16.2 32.0006,16.0 32.0006,15.8 32.0006,15.6 32.0006,15.4 32.0006,15.2 32.0006,15.0 32.0006,14.8 32.0006,14.6 32.0006,14.4 32.0006,14.2 32.0006,14.0 32.0006,13.8 32.0006,13.6 32.0006,13.4 32.0006,13.2 32.0006,13.0 32.0006,12.8 32.0006,12.6 32.0006,12.4 32.0006,12.2 32.0006,12.0 32.0006,11.8 32.0006,11.6 32.0006,11.4 32.0006,11.2 32.0006,11.0 32.0006,10.8 32.0006,10.6 32.0006,10.4 32.0006,10.2 32.0006,10.0 32.0006,9.8 32.0006,9.6 32.0006,9.4 32.0006,9.2 32.0006,9.0 32.0006,8.8 32.0006,8.6 32.0006,8.4 32.0006,8.2 32.0006,8.0 32.0006,7.8 32.0006,7.6 32.0006,7.4 32.0006,7.2 32.2,7.0006 32.4,7.0006 32.6,7.0006 32.8,7.0006 33.0,7.0006 33.2,7.0006 33.4,7.0006 33.6,7.0006 33.8,7.0006 34.0,7.0006 34.2,7.0006 34.4,7.0006 34.6,7.0006 34.8,7.0006 35.0,7.0006 35.2,7.0006 35.4,7.0006 35.5994,7.2 35.5994,7.4 35.5994,7.6 35.6,7.6006 35.7994,7.8 35.6,7.9994 35.5994,8.0 35.5994,8.2 35.5994,8.4 35.5994,8.6 35.5994,8.8 35.5994,9.0 35.5994,9.2 35.5994,9.4 35.5994,9.6 35.5994,9.8 35.5994,10.0 35.5994,10.2 35.5994,10.4 35.5994,10.6 35.6,10.6006 35.7994,10.8 35.6,10.9994 35.5994,11.0 35.5994,11.2 35.5994,11.4 35.5994,11.6 35.5994,11.8 35.5994,12.0 35.5994,12.2 35.5994,12.4 35.5994,12.6 35.5994,12.8 35.5994,13.0 35.5994,13.2 35.5994,13.4 35.5994,13.6 35.5994,13.8 35.5994,14.0 35.5994,14.2 35.5994,14.4 35.5994,14.6 35.5994,14.8 35.5994,15.0 35.5994,15.2 35.5994,15.4 35.5994,15.6 35.5994,15.8 35.5994,16.0 35.5994,16.2 35.5994,16.4 35.5994,16.6 35.5994,16.8 35.5994,17.0 35.5994,17.2 35.5994,17.4 35.5994,17.6 35.5994,17.8 35.5994,18.0 35.5994,18.2 35.5994,18.4 35.5994,18.6 35.5994,18.8 35.5994,19.0 35.5994,19.2 35.5994,19.4 35.5994,19.6 35.5994,19.8 35.5994,20.0 35.5994,20.2 35.5994,20.4 35.5994,20.6 35.5994,20.8 35.5994,21.0 35.5994,21.2 35.5994,21.4 35.5994,21.6 35.5994,21.8 35.5994,22.0 35.5994,22.2 35.5994,22.4 35.5994,22.6 35.5994,22.8 35.5994,23.0 35.5994,23.2 35.5994,23.4 35.6,23.4006 35.7994,23.6 35.6,23.7994 35.5994,23.8 35.4,23.9994 35.2,23.9994 35.0,23.9994 34.9994,24.0 34.8,24.1994 34.6,24.1994 34.4,24.1994 34.2,24.1994 34.1994,24.2 34.0,24.3994" stroke="black" stroke-width="0.5" /><polyline fill="none" points="52.8,39.3994 52.6006,39.2 52.6006,39.0 52.6006,38.8 52.6,38.7994 52.4006,38.6 52.4006,38.4 52.4006,38.2 52.4006,38.0 52.4006,37.8 52.4006,37.6 52.4,37.5994 52.2006,37.4 52.2006,37.2 52.2006,37.0 52.2006,36.8 52.2,36.7994 52.0006,36.6 52.0006,36.4 52.0006,36.2 52.0006,36.0 52.0,35.9994 51.8006,35.8 51.8006,35.6 51.8006,35.4 51.8006,35.2 51.8,35.1994 51.6006,35.0 51.6006,34.8 51.6006,34.6 51.6,34.5994 51.4006,34.4 51.4006,34.2 51.4006,34.0 51.4,33.9994 51.2006,33.8 51.2006,33.6 51.2006,33.4 51.2,33.3994 51.0006,33.2 51.0006,33.0 51.0006,32.8 51.0,32.7994 50.8006,32.6 50.8006,32.4 50.8006,32.2 50.8,32.1994 50.6006,32.0 50.6006,31.8 50.6,31.7994 50.4006,31.6 50.4006,31.4 50.4006,31.2 50.4,31.1994 50.2006,31.0 50.2006,30.8 50.2,30.7994 50.0006,30.6 50.0006,30.4 50.0006,30.2 50.0,30.1994 49.8006,30.0 49.8006,29.8 49.8,29.7994 49.6006,29.6 49.6006,29.4 49.6006,29.2 49.6,29.1994 49.4006,29.0 49.4006,28.8 49.4,28.7994 49.2006,28.6 49.2006,28.4 49.2,28.3994 49.0006,28.2 49.0006,28.0 49.0,27.9994 48.8006,27.8 48.8006,27.6 48.8,27.5994 48.6006,27.4 48.6006,27.2 48.6,27.1994 48.4006,27.0 48.4,26.9994 48.2006,26.8 48.2006,26.6 48.2,26.5994 48.0006,26.4 48.0,26.3994 47.8006,26.2 47.8006,26.0 47.8,25.9994 47.6006,25.8 47.6,25.7994 47.4006,25.6 47.4006,25.4 47.4,25.3994 47.2006,25.2 47.2,25.1994 47.0006,25.0 47.0,24.9994 46.8006,24.8 46.8,24.7994 46.6006,24.6 46.6,24.5994 46.4006,24.4 46.4,24.3994 46.2006,24.2 46.2,24.1994 46.0006,24.0 46.0,23.9994 45.8006,23.8 45.8,23.7994 45.6006,23.6 45.6,23.5994 45.4006,23.4 45.4,23.3994 45.2,23.3994 45.0006,23.2 45.0,23.1994 44.8,23.1994 44.6006,23.0 44.6,22.9994 44.4,22.9994 44.2006,22.8 44.2,22.7994 44.0,22.7994 43.8006,22.6 43.8,22.5994 43.6,22.5994 43.4,22.5994 43.2006,22.4 43.2,22.3994 43.0,22.3994 42.8,22.3994 42.6,22.3994 42.4,22.3994 42.2,22.3994 42.0006,22.2 42.0,22.1994 41.8,22.1994 41.6,22.1994 41.4,22.1994 41.3994,22.2 41.2,22.3994 41.0,22.3994 40.8,22.3994 40.6,22.3994 40.4,22.3994 40.2,22.3994 40.0,22.3994 39.8,22.3994 39.6,22.3994 39.4,22.3994 39.3994,22.4 39.2,22.5994 39.0,22.5994 38.8,22.5994 38.6,22.5994 38.5994,22.6 38.4,22.7994 38.2,22.7994 38.0,22.7994 37.8,22.7994 37.7994,22.8 37.6,22.9994 37.4,22.9994 37.3994,23.0 37.2,23.1994 37.0,23.1994 36.8,23.1994 36.7994,23.2 36.6,23.3994 36.4,23.3994 36.3994,23.4 36.2,23.5994 36.0,23.5994 35.8,23.5994 35.6006,23.4 35.6006,23.2 35.6006,23.0 35.6006,22.8 35.6006,22.6 35.8,22.4006 36.0,22.4006 36.0006,22.4 36.2,22.2006 36.4,22.2006 36.4006,22.2 36.6,22.0006 36.8,22.0006 36.8006,22.0 37.0,21.8006 37.2,21.8006 37.2006,21.8 37.4,21.6006 37.6,21.6006 37.6006,21.6 37.8,21.4006 38.0,21.4006 38.2,21.4006 38.2006,21.4 38.4,21.2006 38.6,21.2006 38.8,21.2006 39.0,21.2006 39.0006,21.2 39.2,21.0006 39.4,21.0006 39.6,21.0006 39.6006,21.0 39.8,20.8006 40.0,20.8006 40.2,20.8006 40.4,20.8006 40.6,20.8006 40.8,20.8006 41.0,20.8006 41.0006,20.8 41.2,20.6006 41.4,20.6006 41.6,20.6006 41.8,20.6006 42.0,20.6006 42.2,20.6006 42.4,20.6006 42.6,20.6006 42.8,20.6006 43.0,20.6006 43.0006,20.6 43.0,20.5994 42.8,20.5994 42.6,20.5994 42.4,20.5994 42.2,20.5994 42.0,20.5994 41.8,20.5994 41.6,20.5994 41.4,20.5994 41.2,20.5994 41.0,20.5994 40.8,20.5994 40.6,20.5994 40.5994,20.6 40.4,20.7994 40.2,20.7994 40.0,20.7994 39.8,20.7994 39.6,20.7994 39.4,20.7994 39.3994,20.8 39.2,20.9994 39.0,20.9994 38.8,20.9994 38.7994,21.0 38.6,21.1994 38.4,21.1994 38.2,21.1994 38.1994,21.2 38.0,21.3994 37.8,21.3994 37.6,21.3994 37.5994,21.4 37.4,21.5994 37.2,21.5994 37.1994,21.6 37.0,21.7994 36.8,21.7994 36.6,21.7994 36.5994,21.8 36.4,21.9994 36.2,21.9994 36.1994,22.0 36.0,22.1994 35.8006,22.0 35.8006,21.8 35.8006,21.6 35.8006,21.4 35.8006,21.2 35.8006,21.0 35.8006,20.8 35.8006,20.6 35.8006,20.4 35.8006,20.2 35.8006,20.0 35.8006,19.8 35.8006,19.6 35.8006,19.4 35.8006,19.2 35.8006,19.0 35.8006,18.8 35.8006,18.6 35.8006,18.4 35.8006,18.2 35.8006,18.0 35.8006,17.8 35.8006,17.6 35.8006,17.4 35.8006,17.2 35.8006,17.0 35.8006,16.8 35.8006,16.6 35.8006,16.4 35.8006,16.2 35.8006,16.0 36.0,15.8006 36.0006,15.8 36.0006,15.6 36.0006,15.4 36.0006,15.2 36.0006,15.0 36.0006,14.8 36.0006,14.6 36.0006,14.4 36.0006,14.2 36.0006,14.0 36.0006,13.8 36.0006,13.6 36.0006,13.4 36.0006,13.2 36.0006,13.0 36.0006,12.8 36.0006,12.6 36.0006,12.4 36.0006,12.2 36.0006,12.0 36.0006,11.8 36.0006,11.6 36.0006,11.4 36.0006,11.2 36.0006,11.0 36.0006,10.8 36.0006,10.6 36.0006,10.4 36.0006,10.2 36.0006,10.0 36.0006,9.8 36.2,9.6006 36.2006,9.6 36.2006,9.4 36.2006,9.2 36.2006,9.0 36.2006,8.8 36.2006,8.6 36.2006,8.4 36.2006,8.2 36.2006,8.0 36.2006,7.8 36.2006,7.6 36.4,7.4006 36.5994,7.6 36.6,7.6006 36.8,7.6006 37.0,7.6006 37.2,7.6006 37.3994,7.8 37.4,7.8006 37.6,7.8006 37.8,7.8006 38.0,7.8006 38.1994,8.0 38.2,8.0006 38.4,8.0006 38.6,8.0006 38.8,8.0006 38.9994,8.2 39.0,8.2006 39.2,8.2006 39.4,8.2006 39.5994,8.4 39.6,8.4006 39.8,8.4006 40.0,8.4006 40.1994,8.6 40.2,8.6006 40.4,8.6006 40.5994,8.8 40.6,8.8006 40.8,8.8006 41.0,8.8006 41.1994,9.0 41.2,9.0006 41.4,9.0006 41.5994,9.2 41.6,9.2006 41.8,9.2006 41.9994,9.4 42.0,9.4006 42.1994,9.6 42.2,9.6006 42.4,9.6006 42.5994,9.8 42.6,9.8006 42.7994,10.0 42.8,10.0006 42.9994,10.2 43.0,10.2006 43.2,10.2006 43.3994,10.4 43.4,10.4006 43.5994,10.6 43.6,10.6006 43.7994,10.8 43.8,10.8006 43.9994,11.0 44.0,11.0006 44.1994,11.2 44.2,11.2006 44.3994,11.4 44.4,11.4006 44.5994,11.6 44.6,11.6006 44.7994,11.8 44.7994,12.0 44.8,12.0006 44.9994,12.2 45.0,12.2006 45.1994,12.4 45.1994,12.6 45.2,12.6006 45.3994,12.8 45.3994,13.0 45.4,13.0006 45.5994,13.2 45.5994,13.4 45.6,13.4006 45.7994,13.6 45.7994,13.8 45.8,13.8006 45.9994,14.0 45.9994,14.2 46.0,14.2006 46.1994,14.4 46.1994,14.6 46.1994,14.8 46.2,14.8006 46.3994,15.0 46.3994,15.2 46.3994,15.4 46.4,15.4006 46.5994,15.6 46.5994,15.8 46.5994,16.0 46.5994,16.2 46.6,16.2006 46.7994,16.4 46.7994,16.6 46.7994,16.8 46.7994,17.0 46.8,17.0006 46.9994,17.2 46.9994,17.4 46.9994,17.6 46.9994,17.8 46.9994,18.0 46.9994,18.2 47.0,18.2006 47.1994,18.4 47.1994,18.6 47.1994,18.8 47.1994,19.0 47.1994,19.2 47.1994,19.4 47.1994,19.6 47.1994,19.8 47.2,19.8006 47.3994,20.0 47.3994,20.2 47.3994,20.4 47.3994,20.6 47.3994,20.8 47.3994,21.0 47.3994,21.2 47.3994,21.4 47.4,21.4006 47.5994,21.6 47.5994,21.8 47.6,21.8006 47.7994,22.0 47.7994,22.2 47.8,22.2006 47.9994,22.4 47.9994,22.6 48.0,22.6006 48.1994,22.8 48.1994,23.0 48.2,23.0006 48.3994,23.2 48.3994,23.4 48.4,23.4006 48.5994,23.6 48.5994,23.8 48.6,23.8006 48.7994,24.0 48.7994,24.2 48.8,24.2006 48.9994,24.4 48.9994,24.6 49.0,24.6006 49.1994,24.8 49.1994,25.0 49.2,25.0006 49.3994,25.2 49.3994,25.4 49.4,25.4006 49.5994,25.6 49.5994,25.8 49.6,25.8006 49.7994,26.0 49.7994,26.2 49.8,26.2006 49.9994,26.4 49.9994,26.6 50.0,26.6006 50.1994,26.8 50.1994,27.0 50.1994,27.2 50.2,27.2006 50.3994,27.4 50.3994,27.6 50.4,27.6006 50.5994,27.8 50.5994,28.0 50.6,28.0006 50.7994,28.2 50.7994,28.4 50.7994,28.6 50.8,28.6006 50.9994,28.8 50.9994,29.0 51.0,29.0006 51.1994,29.2 51.1994,29.4 51.2,29.4006 51.3994,29.6 51.3994,29.8 51.4,29.8006 51.5994,30.0 51.5994,30.2 51.5994,30.4 51.6,30.4006 51.7994,30.6 51.7994,30.8 51.8,30.8006 51.9994,31.0 51.9994,31.2 51.9994,31.4 52.0,31.4006 52.1994,31.6 52.1994,31.8 52.2,31.8006 52.3994,32.0 52.3994,32.2 52.3994,32.4 52.3994,32.6 52.4,32.6006 52.5994,32.8 52.5994,33.0 52.5994,33.2 52.6,33.2006 52.7994,33.4 52.7994,33.6 52.7994,33.8 52.7994,34.0 52.8,34.0006 52.9994,34.2 52.9994,34.4 52.9994,34.6 52.9994,34.8 52.9994,35.0 53.0,35.0006 53.1994,35.2 53.1994,35.4 53.1994,35.6 53.1994,35.8 53.1994,36.0 53.1994,36.2 53.1994,36.4 53.2,36.4006 53.3994,36.6 53.3994,36.8 53.3994,37.0 53.3994,37.2 53.3994,37.4 53.3994,37.6 53.3994,37.8 53.3994,38.0 53.3994,38.2 53.2,38.3994 53.1994,38.4 53.1994,38.6 53.1994,38.8 53.1994,39.0 53.0,39.1994 52.9994,39.2 52.8,39.3994" stroke="black" stroke-width="0.5" /><polyline fill="none" points="15.0,39.3994 14.8,39.3994 14.6006,39.2 14.6006,39.0 14.6006,38.8 14.6,38.7994 14.4006,38.6 14.4006,38.4 14.4006,38.2 14.4006,38.0 14.4006,37.8 14.4006,37.6 14.4006,37.4 14.4006,37.2 14.4006,37.0 14.4006,36.8 14.4006,36.6 14.4006,36.4 14.4006,36.2 14.4006,36.0 14.6,35.8006 14.6006,35.8 14.6006,35.6 14.6006,35.4 14.6006,35.2 14.6006,35.0 14.6006,34.8 14.8,34.6006 14.8006,34.6 14.8006,34.4 14.8006,34.2 14.8006,34.0 15.0,33.8006 15.0006,33.8 15.0006,33.6 15.0006,33.4 15.0006,33.2 15.2,33.0006 15.2006,33.0 15.2006,32.8 15.2006,32.6 15.2006,32.4 15.4,32.2006 15.4006,32.2 15.4006,32.0 15.6,31.8006 15.6006,31.8 15.6006,31.6 15.6006,31.4 15.6006,31.2 15.8,31.0006 15.8006,31.0 15.8006,30.8 16.0,30.6006 16.0006,30.6 16.0006,30.4 16.2,30.2006 16.2006,30.2 16.2006,30.0 16.2006,29.8 16.4,29.6006 16.4006,29.6 16.4006,29.4 16.6,29.2006 16.6006,29.2 16.6006,29.0 16.8,28.8006 16.8006,28.8 16.8006,28.6 16.8006,28.4 17.0,28.2006 17.0006,28.2 17.0006,28.0 17.2,27.8006 17.2006,27.8 17.2006,27.6 17.4,27.4006 17.4006,27.4 17.4006,27.2 17.6,27.0006 17.6006,27.0 17.6006,26.8 17.8,26.6006 17.8006,26.6 17.8006,26.4 18.0,26.2006 18.0006,26.2 18.0006,26.0 18.0006,25.8 18.2,25.6006 18.2006,25.6 18.4,25.4006 18.4006,25.4 18.4006,25.2 18.6,25.0006 18.6006,25.0 18.6006,24.8 18.6006,24.6 18.8,24.4006 18.8006,24.4 18.8006,24.2 19.0,24.0006 19.0006,24.0 19.0006,23.8 19.2,23.6006 19.2006,23.6 19.2006,23.4 19.4,23.2006 19.4006,23.2 19.4006,23.0 19.6,22.8006 19.6006,22.8 19.6006,22.6 19.8,22.4006 19.8006,22.4 20.0,22.2006 20.0006,22.2 20.0006,22.0 20.0006,21.8 20.2,21.6006 20.2006,21.6 20.2006,21.4 20.4,21.2006 20.4006,21.2 20.4006,21.0 20.4006,20.8 20.4006,20.6 20.4006,20.4 20.4006,20.2 20.4006,20.0 20.4006,19.8 20.4006,19.6 20.4006,19.4 20.4006,19.2 20.6,19.0006 20.6006,19.0 20.6006,18.8 20.6006,18.6 20.6006,18.4 20.6006,18.2 20.6006,18.0 20.6006,17.8 20.8,17.6006 20.8006,17.6 20.8006,17.4 20.8006,17.2 20.8006,17.0 20.8006,16.8 21.0,16.6006 21.0006,16.6 21.0006,16.4 21.0006,16.2 21.0006,16.0 21.2,15.8006 21.2006,15.8 21.2006,15.6 21.2006,15.4 21.2006,15.2 21.4,15.0006 21.4006,15.0 21.4006,14.8 21.6,14.6006 21.6006,14.6 21.6006,14.4 21.6006,14.2 21.8,14.0006 21.8006,14.0 21.8006,13.8 22.0,13.6006 22.0006,13.6 22.0006,13.4 22.2,13.2006 22.2006,13.2 22.2006,13.0 22.4,12.8006 22.4006,12.8 22.4006,12.6 22.6,12.4006 22.6006,12.4 22.8,12.2006 22.8006,12.2 22.8006,12.0 23.0,11.8006 23.0006,11.8 23.2,11.6006 23.2006,11.6 23.4,11.4006 23.4006,11.4 23.6,11.2006 23.6006,11.2 23.8,11.0006 23.8006,11.0 24.0,10.8006 24.0006,10.8 24.2,10.6006 24.2006,10.6 24.4,10.4006 24.4006,10.4 24.6,10.2006 24.6006,10.2 24.8,10.0006 24.8006,10.0 25.0,9.8006 25.2,9.8006 25.2006,9.8 25.4,9.6006 25.4006,9.6 25.6,9.4006 25.8,9.4006 25.8006,9.4 26.0,9.2006 26.2,9.2006 26.2006,9.2 26.4,9.0006 26.6,9.0006 26.6006,9.0 26.8,8.8006 27.0,8.8006 27.0006,8.8 27.2,8.6006 27.4,8.6006 27.6,8.6006 27.6006,8.6 27.8,8.4006 28.0,8.4006 28.0006,8.4 28.2,8.2006 28.4,8.2006 28.6,8.2006 28.8,8.2006 28.8006,8.2 29.0,8.0006 29.2,8.0006 29.4,8.0006 29.6,8.0006 29.6006,8.0 29.8,7.8006 30.0,7.8006 30.2,7.8006 30.4,7.8006 30.4006,7.8 30.6,7.6006 30.8,7.6006 31.0,7.6006 31.2,7.6006 31.4,7.6006 31.5994,7.8 31.5994,8.0 31.5994,8.2 31.5994,8.4 31.5994,8.6 31.5994,8.8 31.5994,9.0 31.5994,9.2 31.5994,9.4 31.5994,9.6 31.5994,9.8 31.5994,10.0 31.5994,10.2 31.5994,10.4 31.5994,10.6 31.5994,10.8 31.5994,11.0 31.5994,11.2 31.5994,11.4 31.5994,11.6 31.5994,11.8 31.5994,12.0 31.5994,12.2 31.5994,12.4 31.5994,12.6 31.6,12.6006 31.7994,12.8 31.7994,13.0 31.7994,13.2 31.7994,13.4 31.7994,13.6 31.7994,13.8 31.7994,14.0 31.7994,14.2 31.7994,14.4 31.7994,14.6 31.7994,14.8 31.7994,15.0 31.7994,15.2 31.7994,15.4 31.7994,15.6 31.7994,15.8 31.7994,16.0 31.7994,16.2 31.7994,16.4 31.7994,16.6 31.7994,16.8 31.7994,17.0 31.7994,17.2 31.7994,17.4 31.7994,17.6 31.7994,17.8 31.7994,18.0 31.7994,18.2 31.7994,18.4 31.7994,18.6 31.7994,18.8 31.7994,19.0 31.8,19.0006 31.9994,19.2 31.9994,19.4 31.9994,19.6 31.9994,19.8 31.9994,20.0 31.9994,20.2 31.9994,20.4 31.9994,20.6 31.9994,20.8 31.9994,21.0 31.9994,21.2 31.9994,21.4 31.9994,21.6 31.9994,21.8 31.9994,22.0 31.8,22.1994 31.6006,22.0 31.6,21.9994 31.4,21.9994 31.2,21.9994 31.0006,21.8 31.0,21.7994 30.8,21.7994 30.6006,21.6 30.6,21.5994 30.4,21.5994 30.2006,21.4 30.2,21.3994 30.0,21.3994 29.8,21.3994 29.6006,21.2 29.6,21.1994 29.4,21.1994 29.2,21.1994 29.0006,21.0 29.0,20.9994 28.8,20.9994 28.6,20.9994 28.4,20.9994 28.2006,20.8 28.2,20.7994 28.0,20.7994 27.8,20.7994 27.6,20.7994 27.4,20.7994 27.2006,20.6 27.2,20.5994 27.0,20.5994 26.8,20.5994 26.6,20.5994 26.4,20.5994 26.2,20.5994 26.0,20.5994 25.8,20.5994 25.6,20.5994 25.4,20.5994 25.2,20.5994 25.0,20.5994 24.8,20.5994 24.7994,20.6 24.8,20.6006 25.0,20.6006 25.2,20.6006 25.4,20.6006 25.6,20.6006 25.8,20.6006 26.0,20.6006 26.2,20.6006 26.4,20.6006 26.5994,20.8 26.6,20.8006 26.8,20.8006 27.0,20.8006 27.2,20.8006 27.4,20.8006 27.6,20.8006 27.8,20.8006 27.9994,21.0 28.0,21.0006 28.2,21.0006 28.4,21.0006 28.6,21.0006 28.7994,21.2 28.8,21.2006 29.0,21.2006 29.2,21.2006 29.3994,21.4 29.4,21.4006 29.6,21.4006 29.8,21.4006 29.9994,21.6 30.0,21.6006 30.2,21.6006 30.4,21.6006 30.5994,21.8 30.6,21.8006 30.8,21.8006 30.9994,22.0 31.0,22.0006 31.2,22.0006 31.3994,22.2 31.4,22.2006 31.6,22.2006 31.7994,22.4 31.8,22.4006 31.9994,22.6 31.9994,22.8 31.9994,23.0 31.9994,23.2 31.9994,23.4 31.9994,23.6 31.8,23.7994 31.6006,23.6 31.6,23.5994 31.4006,23.4 31.4,23.3994 31.2,23.3994 31.0,23.3994 30.8006,23.2 30.8,23.1994 30.6,23.1994 30.4006,23.0 30.4,22.9994 30.2,22.9994 30.0,22.9994 29.8006,22.8 29.8,22.7994 29.6,22.7994 29.4,22.7994 29.2,22.7994 29.0006,22.6 29.0,22.5994 28.8,22.5994 28.6,22.5994 28.4,22.5994 28.2006,22.4 28.2,22.3994 28.0,22.3994 27.8,22.3994 27.6,22.3994 27.4,22.3994 27.2,22.3994 27.0,22.3994 26.8,22.3994 26.6,22.3994 26.4,22.3994 26.2006,22.2 26.2,22.1994 26.0,22.1994 25.8,22.1994 25.7994,22.2 25.6,22.3994 25.4,22.3994 25.2,22.3994 25.0,22.3994 24.8,22.3994 24.6,22.3994 24.4,22.3994 24.3994,22.4 24.2,22.5994 24.0,22.5994 23.8,22.5994 23.7994,22.6 23.6,22.7994 23.4,22.7994 23.3994,22.8 23.2,22.9994 23.0,22.9994 22.9994,23.0 22.8,23.1994 22.6,23.1994 22.5994,23.2 22.4,23.3994 22.3994,23.4 22.2,23.5994 22.1994,23.6 22.0,23.7994 21.8,23.7994 21.7994,23.8 21.6,23.9994 21.5994,24.0 21.4,24.1994 21.3994,24.2 21.2,24.3994 21.1994,24.4 21.0,24.5994 20.9994,24.6 20.8,24.7994 20.7994,24.8 20.7994,25.0 20.6,25.1994 20.5994,25.2 20.4,25.3994 20.3994,25.4 20.2,25.5994 20.1994,25.6 20.0,25.7994 19.9994,25.8 19.9994,26.0 19.8,26.1994 19.7994,26.2 19.7994,26.4 19.6,26.5994 19.5994,26.6 19.4,26.7994 19.3994,26.8 19.3994,27.0 19.2,27.1994 19.1994,27.2 19.1994,27.4 19.0,27.5994 18.9994,27.6 18.8,27.7994 18.7994,27.8 18.7994,28.0 18.6,28.1994 18.5994,28.2 18.5994,28.4 18.4,28.5994 18.3994,28.6 18.3994,28.8 18.2,28.9994 18.1994,29.0 18.1994,29.2 18.1994,29.4 18.0,29.5994 17.9994,29.6 17.9994,29.8 17.8,29.9994 17.7994,30.0 17.7994,30.2 17.6,30.3994 17.5994,30.4 17.5994,30.6 17.5994,30.8 17.4,30.9994 17.3994,31.0 17.3994,31.2 17.2,31.3994 17.1994,31.4 17.1994,31.6 17.1994,31.8 17.0,31.9994 16.9994,32.0 16.9994,32.2 16.9994,32.4 16.8,32.5994 16.7994,32.6 16.7994,32.8 16.7994,33.0 16.6,33.1994 16.5994,33.2 16.5994,33.4 16.4,33.5994 16.3994,33.6 16.3994,33.8 16.3994,34.0 16.3994,34.2 16.2,34.3994 16.1994,34.4 16.1994,34.6 16.1994,34.8 16.0,34.9994 15.9994,35.0 15.9994,35.2 15.9994,35.4 15.8,35.5994 15.7994,35.6 15.7994,35.8 15.7994,36.0 15.7994,36.2 15.6,36.3994 15.5994,36.4 15.5994,36.6 15.5994,36.8 15.5994,37.0 15.4,37.1994 15.3994,37.2 15.3994,37.4 15.3994,37.6 15.3994,37.8 15.3994,38.0 15.2,38.1994 15.1994,38.2 15.1994,38.4 15.1994,38.6 15.1994,38.8 15.1994,39.0 15.1994,39.2 15.0,39.3994" stroke="black" stroke-width="0.5" /><polyline fill="none" points="24.2006,20.8 24.2,20.7994 24.0,20.7994 23.8,20.7994 23.7994,20.8 23.8,20.8006 24.0,20.8006 24.2,20.8006 24.2006,20.8" stroke="black" stroke-width="0.5" /><polyline fill="none" points="43.8006,20.8 43.8,20.7994 43.6,20.7994 43.4,20.7994 43.3994,20.8 43.4,20.8006 43.6,20.8006 43.8,20.8006 43.8006,20.8" stroke="black" stroke-width="0.5" /><polyline fill="none" points="34.2,46.7994 34.0,46.7994 33.8,46.7994 33.6,46.7994 33.4006,46.6 33.4,46.5994 33.2,46.5994 33.0006,46.4 33.0,46.3994 32.8,46.3994 32.6006,46.2 32.6,46.1994 32.4006,46.0 32.4,45.9994 32.2,45.9994 32.0006,45.8 32.0,45.7994 31.8006,45.6 31.8,45.5994 31.6,45.5994 31.4006,45.4 31.4,45.3994 31.2,45.3994 31.0006,45.2 31.0,45.1994 30.8006,45.0 30.8,44.9994 30.6,44.9994 30.4006,44.8 30.4,44.7994 30.2,44.7994 30.0006,44.6 30.0,44.5994 29.8,44.5994 29.6006,44.4 29.6,44.3994 29.4006,44.2 29.4,44.1994 29.2,44.1994 29.0006,44.0 29.0,43.9994 28.8006,43.8 28.8,43.7994 28.6,43.7994 28.4006,43.6 28.4,43.5994 28.2,43.5994 28.0006,43.4 28.0,43.3994 27.8006,43.2 27.8,43.1994 27.6,43.1994 27.4006,43.0 27.4,42.9994 27.2,42.9994 27.0006,42.8 27.0,42.7994 26.9994,42.8 26.8,42.9994 26.6,42.9994 26.4006,42.8 26.4,42.7994 26.2,42.7994 26.0,42.7994 25.8006,42.6 25.8006,42.4 25.8,42.3994 25.6,42.3994 25.4006,42.2 25.4,42.1994 25.2,42.1994 25.0,42.1994 24.8,42.1994 24.6,42.1994 24.4,42.1994 24.2006,42.0 24.2,41.9994 24.0,41.9994 23.8,41.9994 23.6,41.9994 23.4,41.9994 23.2,41.9994 23.0006,41.8 23.0,41.7994 22.8,41.7994 22.6,41.7994 22.4,41.7994 22.2,41.7994 22.0006,41.6 22.0,41.5994 21.8,41.5994 21.6,41.5994 21.4,41.5994 21.2006,41.4 21.2,41.3994 21.0,41.3994 20.8,41.3994 20.6,41.3994 20.4,41.3994 20.2006,41.2 20.2,41.1994 20.0,41.1994 19.8,41.1994 19.6,41.1994 19.4006,41.0 19.4,40.9994 19.2,40.9994 19.0,40.9994 18.8006,40.8 18.8,40.7994 18.6,40.7994 18.4,40.7994 18.2006,40.6 18.2,40.5994 18.0,40.5994 17.8,40.5994 17.6,40.5994 17.4006,40.4 17.4,40.3994 17.2,40.3994 17.0006,40.2 17.0,40.1994 16.8,40.1994 16.6,40.1994 16.4006,40.0 16.4,39.9994 16.2,39.9994 16.0006,39.8 16.0,39.7994 15.8,39.7994 15.6,39.7994 15.4006,39.6 15.4006,39.4 15.6,39.2006 15.6006,39.2 15.6006,39.0 15.6006,38.8 15.6006,38.6 15.6006,38.4 15.8,38.2006 15.8006,38.2 15.8006,38.0 15.8006,37.8 15.8006,37.6 15.8006,37.4 16.0,37.2006 16.0006,37.2 16.0006,37.0 16.0006,36.8 16.0006,36.6 16.0006,36.4 16.2,36.2006 16.2006,36.2 16.2006,36.0 16.2006,35.8 16.2006,35.6 16.4,35.4006 16.4006,35.4 16.4006,35.2 16.4006,35.0 16.6,34.8006 16.6006,34.8 16.6006,34.6 16.6006,34.4 16.6006,34.2 16.8,34.0006 16.8006,34.0 16.8006,33.8 16.8006,33.6 17.0,33.4006 17.0006,33.4 17.0006,33.2 17.0006,33.0 17.2,32.8006 17.2006,32.8 17.2006,32.6 17.4,32.4006 17.4006,32.4 17.4006,32.2 17.4006,32.0 17.6,31.8006 17.6006,31.8 17.6006,31.6 17.6006,31.4 17.8,31.2006 17.8006,31.2 17.8006,31.0 18.0,30.8006 18.0006,30.8 18.0006,30.6 18.0006,30.4 18.2,30.2006 18.2006,30.2 18.2006,30.0 18.4,29.8006 18.4006,29.8 18.4006,29.6 18.6,29.4006 18.6006,29.4 18.6006,29.2 18.6006,29.0 18.8,28.8006 18.8006,28.8 19.0,28.6006 19.0006,28.6 19.0006,28.4 19.2,28.2006 19.2006,28.2 19.2006,28.0 19.4,27.8006 19.4006,27.8 19.4006,27.6 19.6,27.4006 19.6006,27.4 19.6006,27.2 19.8,27.0006 19.8006,27.0 20.0,26.8006 20.0006,26.8 20.0006,26.6 20.2,26.4006 20.2006,26.4 20.4,26.2006 20.4006,26.2 20.6,26.0006 20.6006,26.0 20.6006,25.8 20.8,25.6006 20.8006,25.6 21.0,25.4006 21.0006,25.4 21.2,25.2006 21.2006,25.2 21.4,25.0006 21.4006,25.0 21.6,24.8006 21.6006,24.8 21.8,24.6006 21.8006,24.6 22.0,24.4006 22.0006,24.4 22.2,24.2006 22.2006,24.2 22.4,24.0006 22.4006,24.0 22.6,23.8006 22.8,23.8006 22.8006,23.8 23.0,23.6006 23.2,23.6006 23.2006,23.6 23.4,23.4006 23.6,23.4006 23.6006,23.4 23.8,23.2006 24.0,23.2006 24.2,23.2006 24.2006,23.2 24.4,23.0006 24.6,23.0006 24.8,23.0006 25.0,23.0006 25.0006,23.0 25.2,22.8006 25.4,22.8006 25.6,22.8006 25.8,22.8006 26.0,22.8006 26.2,22.8006 26.4,22.8006 26.6,22.8006 26.8,22.8006 27.0,22.8006 27.2,22.8006 27.4,22.8006 27.6,22.8006 27.8,22.8006 28.0,22.8006 28.1994,23.0 28.2,23.0006 28.4,23.0006 28.6,23.0006 28.8,23.0006 29.0,23.0006 29.1994,23.2 29.2,23.2006 29.4,23.2006 29.6,23.2006 29.8,23.2006 29.9994,23.4 30.0,23.4006 30.2,23.4006 30.4,23.4006 30.5994,23.6 30.6,23.6006 30.8,23.6006 31.0,23.6006 31.1994,23.8 31.2,23.8006 31.4,23.8006 31.5994,24.0 31.6,24.0006 31.8,24.0006 32.0,24.0006 32.1994,24.2 32.2,24.2006 32.4,24.2006 32.6,24.2006 32.7994,24.4 32.8,24.4006 33.0,24.4006 33.2,24.4006 33.3994,24.6 33.4,24.6006 33.6,24.6006 33.8,24.6006 34.0,24.6006 34.2,24.6006 34.2006,24.6 34.4,24.4006 34.6,24.4006 34.8,24.4006 35.0,24.4006 35.0006,24.4 35.2,24.2006 35.4,24.2006 35.6,24.2006 35.6006,24.2 35.8,24.0006 36.0,24.0006 36.2,24.0006 36.2006,24.0 36.4,23.8006 36.6,23.8006 36.6006,23.8 36.8,23.6006 37.0,23.6006 37.2,23.6006 37.2006,23.6 37.4,23.4006 37.6,23.4006 37.8,23.4006 37.8006,23.4 38.0,23.2006 38.2,23.2006 38.4,23.2006 38.4006,23.2 38.6,23.0006 38.8,23.0006 39.0,23.0006 39.2,23.0006 39.4,23.0006 39.4006,23.0 39.6,22.8006 39.8,22.8006 40.0,22.8006 40.2,22.8006 40.4,22.8006 40.6,22.8006 40.8,22.8006 41.0,22.8006 41.2,22.8006 41.4,22.8006 41.6,22.8006 41.8,22.8006 42.0,22.8006 42.2,22.8006 42.4,22.8006 42.6,22.8006 42.7994,23.0 42.8,23.0006 43.0,23.0006 43.2,23.0006 43.4,23.0006 43.5994,23.2 43.6,23.2006 43.8,23.2006 44.0,23.2006 44.1994,23.4 44.2,23.4006 44.4,23.4006 44.5994,23.6 44.6,23.6006 44.7994,23.8 44.8,23.8006 45.0,23.8006 45.1994,24.0 45.2,24.0006 45.3994,24.2 45.4,24.2006 45.5994,24.4 45.6,24.4006 45.8,24.4006 45.9994,24.6 46.0,24.6006 46.1994,24.8 46.2,24.8006 46.3994,25.0 46.4,25.0006 46.5994,25.2 46.6,25.2006 46.7994,25.4 46.7994,25.6 46.8,25.6006 46.9994,25.8 47.0,25.8006 47.1994,26.0 47.2,26.0006 47.3994,26.2 47.4,26.2006 47.5994,26.4 47.5994,26.6 47.6,26.6006 47.7994,26.8 47.8,26.8006 47.9994,27.0 47.9994,27.2 48.0,27.2006 48.1994,27.4 48.1994,27.6 48.2,27.6006 48.3994,27.8 48.4,27.8006 48.5994,28.0 48.5994,28.2 48.6,28.2006 48.7994,28.4 48.7994,28.6 48.8,28.6006 48.9994,28.8 48.9994,29.0 49.0,29.0006 49.1994,29.2 49.1994,29.4 49.2,29.4006 49.3994,29.6 49.3994,29.8 49.3994,30.0 49.4,30.0006 49.5994,30.2 49.5994,30.4 49.6,30.4006 49.7994,30.6 49.7994,30.8 49.7994,31.0 49.8,31.0006 49.9994,31.2 49.9994,31.4 50.0,31.4006 50.1994,31.6 50.1994,31.8 50.1994,32.0 50.2,32.0006 50.3994,32.2 50.3994,32.4 50.3994,32.6 50.4,32.6006 50.5994,32.8 50.5994,33.0 50.6,33.0006 50.7994,33.2 50.7994,33.4 50.7994,33.6 50.8,33.6006 50.9994,33.8 50.9994,34.0 50.9994,34.2 50.9994,34.4 51.0,34.4006 51.1994,34.6 51.1994,34.8 51.1994,35.0 51.2,35.0006 51.3994,35.2 51.3994,35.4 51.3994,35.6 51.3994,35.8 51.4,35.8006 51.5994,36.0 51.5994,36.2 51.5994,36.4 51.5994,36.6 51.6,36.6006 51.7994,36.8 51.7994,37.0 51.7994,37.2 51.7994,37.4 51.7994,37.6 51.8,37.6006 51.9994,37.8 51.9994,38.0 51.9994,38.2 51.9994,38.4 51.9994,38.6 52.0,38.6006 52.1994,38.8 52.1994,39.0 52.1994,39.2 52.1994,39.4 52.1994,39.6 52.0,39.7994 51.8,39.7994 51.7994,39.8 51.6,39.9994 51.4,39.9994 51.2,39.9994 51.1994,40.0 51.0,40.1994 50.8,40.1994 50.7994,40.2 50.6,40.3994 50.4,40.3994 50.2,40.3994 50.1994,40.4 50.0,40.5994 49.8,40.5994 49.6,40.5994 49.5994,40.6 49.4,40.7994 49.2,40.7994 49.0,40.7994 48.9994,40.8 48.8,40.9994 48.6,40.9994 48.4,40.9994 48.2,40.9994 48.1994,41.0 48.0,41.1994 47.8,41.1994 47.6,41.1994 47.4,41.1994 47.3994,41.2 47.2,41.3994 47.0,41.3994 46.8,41.3994 46.6,41.3994 46.5994,41.4 46.4,41.5994 46.2,41.5994 46.0,41.5994 45.8,41.5994 45.7994,41.6 45.6,41.7994 45.4,41.7994 45.2,41.7994 45.0,41.7994 44.8,41.7994 44.7994,41.8 44.6,41.9994 44.4,41.9994 44.2,41.9994 44.0,41.9994 43.8,41.9994 43.6,41.9994 43.5994,42.0 43.4,42.1994 43.2,42.1994 43.0,42.1994 42.8,42.1994 42.6,42.1994 42.4,42.1994 42.3994,42.2 42.2,42.3994 42.0,42.3994 41.9994,42.4 41.8,42.5994 41.7994,42.6 41.6,42.7994 41.4,42.7994 41.3994,42.8 41.2,42.9994 41.0,42.9994 40.8006,42.8 40.8,42.7994 40.6,42.7994 40.5994,42.8 40.4,42.9994 40.2,42.9994 40.1994,43.0 40.0,43.1994 39.9994,43.2 39.8,43.3994 39.6,43.3994 39.5994,43.4 39.4,43.5994 39.3994,43.6 39.2,43.7994 39.0,43.7994 38.9994,43.8 38.8,43.9994 38.6,43.9994 38.5994,44.0 38.4,44.1994 38.3994,44.2 38.2,44.3994 38.0,44.3994 37.9994,44.4 37.8,44.5994 37.6,44.5994 37.5994,44.6 37.4,44.7994 37.3994,44.8 37.2,44.9994 37.0,44.9994 36.9994,45.0 36.8,45.1994 36.6,45.1994 36.5994,45.2 36.4,45.3994 36.3994,45.4 36.2,45.5994 36.0,45.5994 35.9994,45.6 35.8,45.7994 35.7994,45.8 35.6,45.9994 35.4,45.9994 35.3994,46.0 35.2,46.1994 35.0,46.1994 34.9994,46.2 34.8,46.3994 34.6,46.3994 34.5994,46.4 34.4,46.5994 34.3994,46.6 34.2,46.7994" stroke="black" stroke-width="0.5" /><polyline fill="none" points="28.4006,29.4 28.6,29.2006 28.8,29.2006 29.0,29.2006 29.2,29.2006 29.4,29.2006 29.6,29.2006 29.6006,29.2 29.8,29.0006 30.0,29.0006 30.2,29.0006 30.4,29.0006 30.4006,29.0 30.6,28.8006 30.8,28.8006 30.8006,28.8 31.0,28.6006 31.2,28.6006 31.2006,28.6 31.4,28.4006 31.6,28.4006 31.6006,28.4 31.8,28.2006 32.0,28.2006 32.0006,28.2 32.2,28.0006 32.2006,28.0 32.2006,27.8 32.2006,27.6 32.2006,27.4 32.2006,27.2 32.2006,27.0 32.2006,26.8 32.2006,26.6 32.2006,26.4 32.2006,26.2 32.2006,26.0 32.2006,25.8 32.2006,25.6 32.2,25.5994 32.0006,25.4 32.0,25.3994 31.8006,25.2 31.8,25.1994 31.6,25.1994 31.4006,25.0 31.4,24.9994 31.2006,24.8 31.2,24.7994 31.0,24.7994 30.8006,24.6 30.8,24.5994 30.6,24.5994 30.4006,24.4 30.4,24.3994 30.2,24.3994 30.0006,24.2 30.0,24.1994 29.8,24.1994 29.6,24.1994 29.4006,24.0 29.4,23.9994 29.2,23.9994 29.0,23.9994 28.8006,23.8 28.8,23.7994 28.6,23.7994 28.4,23.7994 28.2,23.7994 28.0,23.7994 27.8006,23.6 27.8,23.5994 27.6,23.5994 27.4,23.5994 27.2,23.5994 27.0,23.5994 26.9994,23.6 26.8,23.7994 26.6,23.7994 26.4,23.7994 26.2,23.7994 26.1994,23.8 26.0,23.9994 25.8,23.9994 25.6,23.9994 25.5994,24.0 25.4,24.1994 25.3994,24.2 25.2,24.3994 25.0,24.3994 24.9994,24.4 24.8,24.5994 24.7994,24.6 24.6,24.7994 24.5994,24.8 24.4,24.9994 24.3994,25.0 24.2,25.1994 24.1994,25.2 24.1994,25.4 24.0,25.5994 23.9994,25.6 23.9994,25.8 23.8,25.9994 23.7994,26.0 23.7994,26.2 23.6,26.3994 23.5994,26.4 23.5994,26.6 23.5994,26.8 23.4,26.9994 23.3994,27.0 23.3994,27.2 23.3994,27.4 23.2,27.5994 23.1994,27.6 23.1994,27.8 23.1994,28.0 23.2,28.0006 23.3994,28.2 23.4,28.2006 23.5994,28.4 23.6,28.4006 23.7994,28.6 23.8,28.6006 24.0,28.6006 24.1994,28.8 24.2,28.8006 24.4,28.8006 24.6,28.8006 24.7994,29.0 24.8,29.0006 25.0,29.0006 25.2,29.0006 25.4,29.0006 25.6,29.0006 25.7994,29.2 25.8,29.2006 26.0,29.2006 26.2,29.2006 26.4,29.2006 26.6,29.2006 26.8,29.2006 27.0,29.2006 27.2,29.2006 27.4,29.2006 27.5994,29.4 27.6,29.4006 27.8,29.4006 28.0,29.4006 28.2,29.4006 28.4,29.4006 28.4006,29.4" stroke="black" stroke-width="0.5" /><polyline fill="none" points="40.2006,29.4 40.4,29.2006 40.6,29.2006 40.8,29.2006 41.0,29.2006 41.2,29.2006 41.4,29.2006 41.6,29.2006 41.8,29.2006 41.8006,29.2 42.0,29.0006 42.2,29.0006 42.4,29.0006 42.6,29.0006 42.8,29.0006 42.8006,29.0 43.0,28.8006 43.2,28.8006 43.4,28.8006 43.4006,28.8 43.6,28.6006 43.8,28.6006 43.8006,28.6 44.0,28.4006 44.2,28.4006 44.2006,28.4 44.4,28.2006 44.4006,28.2 44.6,28.0006 44.6006,28.0 44.6,27.9994 44.4006,27.8 44.4006,27.6 44.4006,27.4 44.4006,27.2 44.4,27.1994 44.2006,27.0 44.2006,26.8 44.2006,26.6 44.2,26.5994 44.0006,26.4 44.0006,26.2 44.0,26.1994 43.8006,26.0 43.8006,25.8 43.8,25.7994 43.6006,25.6 43.6006,25.4 43.6,25.3994 43.4006,25.2 43.4,25.1994 43.2006,25.0 43.2,24.9994 43.0006,24.8 43.0,24.7994 42.8006,24.6 42.8,24.5994 42.6006,24.4 42.6,24.3994 42.4006,24.2 42.4,24.1994 42.2,24.1994 42.0006,24.0 42.0,23.9994 41.8,23.9994 41.6006,23.8 41.6,23.7994 41.4,23.7994 41.2,23.7994 41.0,23.7994 40.8006,23.6 40.8,23.5994 40.6,23.5994 40.4,23.5994 40.2,23.5994 40.0,23.5994 39.9994,23.6 39.8,23.7994 39.6,23.7994 39.4,23.7994 39.2,23.7994 39.0,23.7994 38.8,23.7994 38.7994,23.8 38.6,23.9994 38.4,23.9994 38.2,23.9994 38.1994,24.0 38.0,24.1994 37.8,24.1994 37.7994,24.2 37.6,24.3994 37.4,24.3994 37.2,24.3994 37.1994,24.4 37.0,24.5994 36.8,24.5994 36.7994,24.6 36.6,24.7994 36.5994,24.8 36.4,24.9994 36.2,24.9994 36.1994,25.0 36.0,25.1994 35.9994,25.2 35.8,25.3994 35.6,25.3994 35.5994,25.4 35.5994,25.6 35.5994,25.8 35.5994,26.0 35.5994,26.2 35.5994,26.4 35.5994,26.6 35.5994,26.8 35.5994,27.0 35.5994,27.2 35.5994,27.4 35.5994,27.6 35.5994,27.8 35.5994,28.0 35.6,28.0006 35.7994,28.2 35.8,28.2006 35.9994,28.4 36.0,28.4006 36.2,28.4006 36.3994,28.6 36.4,28.6006 36.6,28.6006 36.7994,28.8 36.8,28.8006 37.0,28.8006 37.2,28.8006 37.3994,29.0 37.4,29.0006 37.6,29.0006 37.8,29.0006 37.9994,29.2 38.0,29.2006 38.2,29.2006 38.4,29.2006 38.6,29.2006 38.8,29.2006 39.0,29.2006 39.1994,29.4 39.2,29.4006 39.4,29.4006 39.6,29.4006 39.8,29.4006 40.0,29.4006 40.2,29.4006 40.2006,29.4" stroke="black" stroke-width="0.5" /><polyline fill="none" points="34.6006,26.8 34.6,26.7994 34.4006,26.6 34.4,26.5994 34.2,26.5994 34.0006,26.4 34.0,26.3994 33.8,26.3994 33.6,26.3994 33.5994,26.4 33.4,26.5994 33.3994,26.6 33.2,26.7994 33.1994,26.8 33.2,26.8006 33.2006,26.8 33.4,26.6006 33.6,26.6006 33.8,26.6006 34.0,26.6006 34.2,26.6006 34.4,26.6006 34.5994,26.8 34.6,26.8006 34.6006,26.8" stroke="black" stroke-width="0.5" /><polyline fill="none" points="33.0006,28.0 33.2,27.8006 33.4,27.8006 33.4006,27.8 33.6,27.6006 33.8,27.6006 34.0,27.6006 34.2,27.6006 34.3994,27.8 34.4,27.8006 34.6,27.8006 34.6006,27.8 34.6,27.7994 34.4,27.7994 34.2006,27.6 34.2,27.5994 34.0,27.5994 33.8,27.5994 33.6,27.5994 33.4,27.5994 33.3994,27.6 33.2,27.7994 33.1994,27.8 33.0,27.9994 32.9994,28.0 33.0,28.0006 33.0006,28.0" stroke="black" stroke-width="0.5" /><polyline fill="none" points="34.8006,29.0 34.8,28.9994 34.6,28.9994 34.4006,28.8 34.4,28.7994 34.2006,28.6 34.2,28.5994 34.0,28.5994 33.8,28.5994 33.6,28.5994 33.5994,28.6 33.4,28.7994 33.2,28.7994 33.1994,28.8 33.0,28.9994 32.9994,29.0 33.0,29.0006 33.2,29.0006 33.2006,29.0 33.4,28.8006 33.6,28.8006 33.8,28.8006 34.0,28.8006 34.2,28.8006 34.4,28.8006 34.5994,29.0 34.6,29.0006 34.8,29.0006 34.8006,29.0" stroke="black" stroke-width="0.5" /><polyline fill="none" points="27.2006,30.8 27.4,30.6006 27.6,30.6006 27.8,30.6006 28.0,30.6006 28.2,30.6006 28.4,30.6006 28.6,30.6006 28.6006,30.6 28.8,30.4006 29.0,30.4006 29.2,30.4006 29.4,30.4006 29.4006,30.4 29.6,30.2006 29.8,30.2006 29.8006,30.2 29.8,30.1994 29.6,30.1994 29.4,30.1994 29.2,30.1994 29.0,30.1994 28.9994,30.2 28.8,30.3994 28.6,30.3994 28.4,30.3994 28.2,30.3994 28.0,30.3994 27.8,30.3994 27.6,30.3994 27.4,30.3994 27.2,30.3994 27.0,30.3994 26.8,30.3994 26.6,30.3994 26.4,30.3994 26.2,30.3994 26.0,30.3994 25.8,30.3994 25.6,30.3994 25.4,30.3994 25.2,30.3994 25.0,30.3994 24.8,30.3994 24.6006,30.2 24.6,30.1994 24.4,30.1994 24.2,30.1994 24.0,30.1994 23.8006,30.0 23.8,29.9994 23.7994,30.0 23.7994,30.2 23.7994,30.4 23.8,30.4006 23.9994,30.6 24.0,30.6006 24.2,30.6006 24.4,30.6006 24.6,30.6006 24.8,30.6006 24.9994,30.8 25.0,30.8006 25.2,30.8006 25.4,30.8006 25.6,30.8006 25.8,30.8006 26.0,30.8006 26.2,30.8006 26.4,30.8006 26.6,30.8006 26.8,30.8006 27.0,30.8006 27.2,30.8006 27.2006,30.8" stroke="black" stroke-width="0.5" /><polyline fill="none" points="30.2006,30.0 30.2,29.9994 30.1994,30.0 30.2,30.0006 30.2006,30.0" stroke="black" stroke-width="0.5" /><polyline fill="none" points="42.6006,30.8 42.8,30.6006 43.0,30.6006 43.2,30.6006 43.4,30.6006 43.6,30.6006 43.8,30.6006 43.8006,30.6 43.8006,30.4 44.0,30.2006 44.0006,30.2 44.0006,30.0 44.0,29.9994 43.9994,30.0 43.8,30.1994 43.6,30.1994 43.4,30.1994 43.2,30.1994 43.1994,30.2 43.0,30.3994 42.8,30.3994 42.6,30.3994 42.4,30.3994 42.2,30.3994 42.0,30.3994 41.8,30.3994 41.6,30.3994 41.4,30.3994 41.2,30.3994 41.0,30.3994 40.8,30.3994 40.6,30.3994 40.4,30.3994 40.2,30.3994 40.0,30.3994 39.8,30.3994 39.6,30.3994 39.4,30.3994 39.2,30.3994 39.0,30.3994 38.8,30.3994 38.6006,30.2 38.6,30.1994 38.4,30.1994 38.2,30.1994 38.0,30.1994 37.8,30.1994 37.7994,30.2 37.8,30.2006 38.0,30.2006 38.2,30.2006 38.3994,30.4 38.4,30.4006 38.6,30.4006 38.8,30.4006 39.0,30.4006 39.1994,30.6 39.2,30.6006 39.4,30.6006 39.6,30.6006 39.8,30.6006 40.0,30.6006 40.2,30.6006 40.4,30.6006 40.5994,30.8 40.6,30.8006 40.8,30.8006 41.0,30.8006 41.2,30.8006 41.4,30.8006 41.6,30.8006 41.8,30.8006 42.0,30.8006 42.2,30.8006 42.4,30.8006 42.6,30.8006 42.6006,30.8" stroke="black" stroke-width="0.5" /><polyline fill="none" points="40.4006,41.0 40.6,40.8006 40.6006,40.8 40.6006,40.6 40.6,40.5994 40.4006,40.4 40.4006,40.2 40.4,40.1994 40.2006,40.0 40.2,39.9994 40.0006,39.8 40.0006,39.6 40.0,39.5994 39.8006,39.4 39.8006,39.2 39.8,39.1994 39.6006,39.0 39.6,38.9994 39.4006,38.8 39.4006,38.6 39.4,38.5994 39.2006,38.4 39.2,38.3994 39.0006,38.2 39.0,38.1994 38.8006,38.0 38.8006,37.8 38.8,37.7994 38.6006,37.6 38.6,37.5994 38.4006,37.4 38.4006,37.2 38.4,37.1994 38.2006,37.0 38.2,36.9994 38.0006,36.8 38.0,36.7994 37.8006,36.6 37.8006,36.4 37.8,36.3994 37.6006,36.2 37.6,36.1994 37.4006,36.0 37.4,35.9994 37.2006,35.8 37.2,35.7994 37.0006,35.6 37.0,35.5994 36.8006,35.4 36.8006,35.2 36.8,35.1994 36.6,35.1994 36.4006,35.0 36.4,34.9994 36.2006,34.8 36.2006,34.6 36.2,34.5994 36.0,34.5994 35.8006,34.4 35.8,34.3994 35.6006,34.2 35.6,34.1994 35.4006,34.0 35.4,33.9994 35.2006,33.8 35.2,33.7994 35.0006,33.6 35.0006,33.4 35.0006,33.2 35.0006,33.0 35.0006,32.8 35.0006,32.6 35.0006,32.4 35.0006,32.2 35.0006,32.0 35.0006,31.8 35.0006,31.6 35.0,31.5994 34.8006,31.4 34.8,31.3994 34.6006,31.2 34.6,31.1994 34.4,31.1994 34.2006,31.0 34.2,30.9994 34.0,30.9994 33.8,30.9994 33.6,30.9994 33.5994,31.0 33.4,31.1994 33.2,31.1994 33.0,31.1994 32.9994,31.2 32.8,31.3994 32.7994,31.4 32.7994,31.6 32.7994,31.8 32.6,31.9994 32.5994,32.0 32.6,32.0006 32.7994,32.2 32.7994,32.4 32.7994,32.6 32.7994,32.8 32.7994,33.0 32.7994,33.2 32.7994,33.4 32.7994,33.6 32.6,33.7994 32.5994,33.8 32.4,33.9994 32.3994,34.0 32.2,34.1994 32.0,34.1994 31.9994,34.2 31.8,34.3994 31.7994,34.4 31.6,34.5994 31.5994,34.6 31.4,34.7994 31.3994,34.8 31.2,34.9994 31.1994,35.0 31.0,35.1994 30.9994,35.2 30.8,35.3994 30.7994,35.4 30.6,35.5994 30.5994,35.6 30.4,35.7994 30.3994,35.8 30.3994,36.0 30.2,36.1994 30.1994,36.2 30.0,36.3994 29.9994,36.4 29.8,36.5994 29.7994,36.6 29.6,36.7994 29.5994,36.8 29.5994,37.0 29.4,37.1994 29.3994,37.2 29.2,37.3994 29.1994,37.4 29.1994,37.6 29.0,37.7994 28.9994,37.8 28.8,37.9994 28.7994,38.0 28.6,38.1994 28.5994,38.2 28.5994,38.4 28.4,38.5994 28.3994,38.6 28.2,38.7994 28.1994,38.8 28.1994,39.0 28.0,39.1994 27.9994,39.2 27.9994,39.4 27.8,39.5994 27.7994,39.6 27.6,39.7994 27.5994,39.8 27.5994,40.0 27.4,40.1994 27.3994,40.2 27.2,40.3994 27.1994,40.4 27.1994,40.6 27.0,40.7994 26.9994,40.8 27.0,40.8006 27.1994,41.0 27.2,41.0006 27.4,41.0006 27.4006,41.0 27.4006,40.8 27.6,40.6006 27.6006,40.6 27.6006,40.4 27.8,40.2006 27.8006,40.2 28.0,40.0006 28.0006,40.0 28.0006,39.8 28.2,39.6006 28.2006,39.6 28.2006,39.4 28.4,39.2006 28.4006,39.2 28.4006,39.0 28.6,38.8006 28.6006,38.8 28.8,38.6006 28.8006,38.6 28.8006,38.4 29.0,38.2006 29.0006,38.2 29.2,38.0006 29.2006,38.0 29.2006,37.8 29.4,37.6006 29.4006,37.6 29.6,37.4006 29.6006,37.4 29.6006,37.2 29.8,37.0006 29.8006,37.0 30.0,36.8006 30.0006,36.8 30.2,36.6006 30.2006,36.6 30.4,36.4006 30.4006,36.4 30.4006,36.2 30.6,36.0006 30.6006,36.0 30.8,35.8006 30.8006,35.8 31.0,35.6006 31.0006,35.6 31.2,35.4006 31.2006,35.4 31.4,35.2006 31.4006,35.2 31.6,35.0006 31.6006,35.0 31.8,34.8006 31.8006,34.8 32.0,34.6006 32.0006,34.6 32.2,34.4006 32.4,34.4006 32.4006,34.4 32.6,34.2006 32.6006,34.2 32.8,34.0006 33.0,34.0006 33.0006,34.0 33.2,33.8006 33.4,33.8006 33.6,33.8006 33.8,33.8006 34.0,33.8006 34.2,33.8006 34.4,33.8006 34.5994,34.0 34.6,34.0006 34.8,34.0006 34.9994,34.2 35.0,34.2006 35.2,34.2006 35.3994,34.4 35.4,34.4006 35.5994,34.6 35.6,34.6006 35.8,34.6006 35.9994,34.8 36.0,34.8006 36.1994,35.0 36.2,35.0006 36.3994,35.2 36.4,35.2006 36.5994,35.4 36.6,35.4006 36.7994,35.6 36.7994,35.8 36.8,35.8006 36.9994,36.0 37.0,36.0006 37.1994,36.2 37.2,36.2006 37.3994,36.4 37.4,36.4006 37.5994,36.6 37.5994,36.8 37.6,36.8006 37.7994,37.0 37.8,37.0006 37.9994,37.2 38.0,37.2006 38.1994,37.4 38.2,37.4006 38.3994,37.6 38.3994,37.8 38.4,37.8006 38.5994,38.0 38.6,38.0006 38.7994,38.2 38.7994,38.4 38.8,38.4006 38.9994,38.6 39.0,38.6006 39.1994,38.8 39.1994,39.0 39.2,39.0006 39.3994,39.2 39.3994,39.4 39.4,39.4006 39.5994,39.6 39.5994,39.8 39.6,39.8006 39.7994,40.0 39.8,40.0006 39.9994,40.2 39.9994,40.4 40.0,40.4006 40.1994,40.6 40.1994,40.8 40.2,40.8006 40.3994,41.0 40.4,41.0006 40.4006,41.0" stroke="black" stroke-width="0.5" /><polyline fill="none" points="26.2006,37.2 26.2006,37.0 26.4,36.8006 26.4006,36.8 26.6,36.6006 26.6006,36.6 26.8,36.4006 26.8006,36.4 27.0,36.2006 27.0006,36.2 27.2,36.0006 27.2006,36.0 27.2006,35.8 27.4,35.6006 27.4006,35.6 27.6,35.4006 27.6006,35.4 27.8,35.2006 27.8006,35.2 28.0,35.0006 28.0006,35.0 28.2,34.8006 28.2006,34.8 28.4,34.6006 28.4006,34.6 28.4006,34.4 28.6,34.2006 28.6006,34.2 28.8,34.0006 28.8006,34.0 29.0,33.8006 29.0006,33.8 29.2,33.6006 29.2006,33.6 29.2006,33.4 29.4,33.2006 29.4006,33.2 29.6,33.0006 29.6006,33.0 29.8,32.8006 29.8006,32.8 30.0,32.6006 30.0006,32.6 30.0006,32.4 30.2,32.2006 30.2006,32.2 30.4,32.0006 30.4006,32.0 30.6,31.8006 30.6006,31.8 30.8,31.6006 30.8006,31.6 31.0,31.4006 31.0006,31.4 31.0,31.3994 30.8,31.3994 30.6,31.3994 30.5994,31.4 30.4,31.5994 30.2,31.5994 30.0,31.5994 29.8,31.5994 29.7994,31.6 29.6,31.7994 29.4,31.7994 29.2,31.7994 29.0,31.7994 28.9994,31.8 28.8,31.9994 28.6,31.9994 28.4,31.9994 28.2,31.9994 28.0,31.9994 27.8,31.9994 27.6,31.9994 27.5994,32.0 27.4,32.1994 27.2,32.1994 27.0,32.1994 26.8,32.1994 26.6,32.1994 26.4,32.1994 26.2,32.1994 26.0,32.1994 25.8,32.1994 25.6,32.1994 25.4,32.1994 25.2,32.1994 25.0,32.1994 24.8,32.1994 24.6006,32.0 24.6,31.9994 24.4,31.9994 24.2,31.9994 24.1994,32.0 24.2,32.0006 24.3994,32.2 24.3994,32.4 24.4,32.4006 24.5994,32.6 24.5994,32.8 24.5994,33.0 24.6,33.0006 24.7994,33.2 24.7994,33.4 24.7994,33.6 24.8,33.6006 24.9994,33.8 24.9994,34.0 24.9994,34.2 25.0,34.2006 25.1994,34.4 25.1994,34.6 25.2,34.6006 25.3994,34.8 25.3994,35.0 25.3994,35.2 25.4,35.2006 25.5994,35.4 25.5994,35.6 25.5994,35.8 25.6,35.8006 25.7994,36.0 25.7994,36.2 25.7994,36.4 25.8,36.4006 25.9994,36.6 25.9994,36.8 25.9994,37.0 26.0,37.0006 26.1994,37.2 26.2,37.2006 26.2006,37.2" stroke="black" stroke-width="0.5" /><polyline fill="none" points="34.6,33.5994 34.4006,33.4 34.4,33.3994 34.2,33.3994 34.0,33.3994 33.8,33.3994 33.6,33.3994 33.4,33.3994 33.3994,33.4 33.2,33.5994 33.0,33.5994 32.8006,33.4 32.8006,33.2 32.8006,33.0 32.8006,32.8 32.8006,32.6 32.8006,32.4 32.8006,32.2 32.8006,32.0 32.8006,31.8 33.0,31.6006 33.0006,31.6 33.2,31.4006 33.2006,31.4 33.4,31.2006 33.6,31.2006 33.8,31.2006 34.0,31.2006 34.2,31.2006 34.4,31.2006 34.5994,31.4 34.6,31.4006 34.7994,31.6 34.7994,31.8 34.8,31.8006 34.9994,32.0 34.9994,32.2 34.9994,32.4 34.9994,32.6 34.9994,32.8 34.9994,33.0 34.9994,33.2 34.8,33.3994 34.7994,33.4 34.6,33.5994" stroke="black" stroke-width="0.5" /><polyline fill="none" points="41.6006,37.2 41.6006,37.0 41.8,36.8006 41.8006,36.8 41.8006,36.6 41.8006,36.4 42.0,36.2006 42.0006,36.2 42.0006,36.0 42.0006,35.8 42.2,35.6006 42.2006,35.6 42.2006,35.4 42.2006,35.2 42.4,35.0006 42.4006,35.0 42.4006,34.8 42.4006,34.6 42.6,34.4006 42.6006,34.4 42.6006,34.2 42.6006,34.0 42.8,33.8006 42.8006,33.8 42.8006,33.6 43.0,33.4006 43.0006,33.4 43.0006,33.2 43.0006,33.0 43.2,32.8006 43.2006,32.8 43.2006,32.6 43.2006,32.4 43.4,32.2006 43.4006,32.2 43.4006,32.0 43.4,31.9994 43.2,31.9994 43.0,31.9994 42.9994,32.0 42.8,32.1994 42.6,32.1994 42.4,32.1994 42.2,32.1994 42.0,32.1994 41.8,32.1994 41.6,32.1994 41.4,32.1994 41.2,32.1994 41.0,32.1994 40.8,32.1994 40.6,32.1994 40.4,32.1994 40.2006,32.0 40.2,31.9994 40.0,31.9994 39.8,31.9994 39.6,31.9994 39.4,31.9994 39.2,31.9994 39.0,31.9994 38.8006,31.8 38.8,31.7994 38.6,31.7994 38.4,31.7994 38.2,31.7994 38.0,31.7994 37.8006,31.6 37.8,31.5994 37.6,31.5994 37.4,31.5994 37.2,31.5994 37.0006,31.4 37.0,31.3994 36.8,31.3994 36.7994,31.4 36.8,31.4006 36.9994,31.6 37.0,31.6006 37.1994,31.8 37.2,31.8006 37.3994,32.0 37.3994,32.2 37.4,32.2006 37.5994,32.4 37.6,32.4006 37.7994,32.6 37.8,32.6006 37.9994,32.8 38.0,32.8006 38.1994,33.0 38.1994,33.2 38.2,33.2006 38.3994,33.4 38.4,33.4006 38.5994,33.6 38.6,33.6006 38.7994,33.8 38.8,33.8006 38.9994,34.0 39.0,34.0006 39.1994,34.2 39.1994,34.4 39.2,34.4006 39.3994,34.6 39.4,34.6006 39.5994,34.8 39.6,34.8006 39.7994,35.0 39.8,35.0006 39.9994,35.2 39.9994,35.4 40.0,35.4006 40.1994,35.6 40.2,35.6006 40.3994,35.8 40.4,35.8006 40.5994,36.0 40.6,36.0006 40.7994,36.2 40.7994,36.4 40.8,36.4006 40.9994,36.6 41.0,36.6006 41.1994,36.8 41.2,36.8006 41.3994,37.0 41.4,37.0006 41.5994,37.2 41.6,37.2006 41.6006,37.2" stroke="black" stroke-width="0.5" /><polyline fill="none" points="26.2,36.7994 26.0006,36.6 26.0006,36.4 26.0006,36.2 26.0,36.1994 25.8006,36.0 25.8006,35.8 25.8006,35.6 25.8,35.5994 25.6006,35.4 25.6006,35.2 25.6006,35.0 25.6,34.9994 25.4006,34.8 25.4006,34.6 25.4006,34.4 25.4,34.3994 25.2006,34.2 25.2006,34.0 25.2,33.9994 25.0006,33.8 25.0006,33.6 25.0006,33.4 25.0,33.3994 24.8006,33.2 24.8006,33.0 24.8006,32.8 24.8,32.7994 24.6006,32.6 24.8,32.4006 24.8006,32.4 25.0,32.2006 25.2,32.2006 25.3994,32.4 25.4,32.4006 25.6,32.4006 25.8,32.4006 26.0,32.4006 26.2,32.4006 26.4,32.4006 26.6,32.4006 26.6006,32.4 26.8,32.2006 27.0,32.2006 27.2,32.2006 27.4,32.2006 27.6,32.2006 27.8,32.2006 28.0,32.2006 28.2,32.2006 28.4,32.2006 28.6,32.2006 28.6006,32.2 28.8,32.0006 29.0,32.0006 29.2,32.0006 29.4,32.0006 29.4006,32.0 29.6,31.8006 29.8,31.8006 30.0,31.8006 30.1994,32.0 30.0,32.1994 29.9994,32.2 29.8,32.3994 29.7994,32.4 29.6,32.5994 29.5994,32.6 29.5994,32.8 29.4,32.9994 29.3994,33.0 29.2,33.1994 29.1994,33.2 29.0,33.3994 28.9994,33.4 28.8,33.5994 28.7994,33.6 28.7994,33.8 28.6,33.9994 28.5994,34.0 28.4,34.1994 28.3994,34.2 28.2,34.3994 28.1994,34.4 28.0,34.5994 27.9994,34.6 27.9994,34.8 27.8,34.9994 27.7994,35.0 27.6,35.1994 27.5994,35.2 27.4,35.3994 27.3994,35.4 27.2,35.5994 27.1994,35.6 27.0,35.7994 26.9994,35.8 26.9994,36.0 26.8,36.1994 26.7994,36.2 26.6,36.3994 26.5994,36.4 26.4,36.5994 26.3994,36.6 26.2,36.7994" stroke="black" stroke-width="0.5" /><polyline fill="none" points="41.4,36.5994 41.2006,36.4 41.2,36.3994 41.0006,36.2 41.0,36.1994 40.8006,36.0 40.8,35.9994 40.6006,35.8 40.6,35.7994 40.4006,35.6 40.4006,35.4 40.4,35.3994 40.2006,35.2 40.2,35.1994 40.0006,35.0 40.0,34.9994 39.8006,34.8 39.8,34.7994 39.6006,34.6 39.6,34.5994 39.4006,34.4 39.4006,34.2 39.4,34.1994 39.2006,34.0 39.2,33.9994 39.0006,33.8 39.0,33.7994 38.8006,33.6 38.8,33.5994 38.6006,33.4 38.6,33.3994 38.4006,33.2 38.4006,33.0 38.4,32.9994 38.2006,32.8 38.2,32.7994 38.0006,32.6 38.0,32.5994 37.8006,32.4 37.8,32.3994 37.6006,32.2 37.6006,32.0 37.8,31.8006 38.0,31.8006 38.1994,32.0 38.2,32.0006 38.4,32.0006 38.6,32.0006 38.8,32.0006 39.0,32.0006 39.1994,32.2 39.2,32.2006 39.4,32.2006 39.6,32.2006 39.8,32.2006 40.0,32.2006 40.2,32.2006 40.4,32.2006 40.6,32.2006 40.8,32.2006 40.9994,32.4 41.0,32.4006 41.2,32.4006 41.4,32.4006 41.6,32.4006 41.8,32.4006 42.0,32.4006 42.2,32.4006 42.2006,32.4 42.4,32.2006 42.6,32.2006 42.8,32.2006 42.9994,32.4 42.9994,32.6 42.9994,32.8 42.9994,33.0 42.8,33.1994 42.7994,33.2 42.7994,33.4 42.6,33.5994 42.5994,33.6 42.5994,33.8 42.5994,34.0 42.4,34.1994 42.3994,34.2 42.3994,34.4 42.3994,34.6 42.2,34.7994 42.1994,34.8 42.1994,35.0 42.1994,35.2 42.0,35.3994 41.9994,35.4 41.9994,35.6 41.9994,35.8 41.8,35.9994 41.7994,36.0 41.7994,36.2 41.6,36.3994 41.5994,36.4 41.4,36.5994" stroke="black" stroke-width="0.5" /><polyline fill="none" points="23.2006,33.4 23.2006,33.2 23.2,33.1994 23.0006,33.0 23.0,32.9994 22.9994,33.0 23.0,33.0006 23.1994,33.2 23.1994,33.4 23.2,33.4006 23.2006,33.4" stroke="black" stroke-width="0.5" /><polyline fill="none" points="44.6006,33.2 44.6006,33.0 44.6,32.9994 44.5994,33.0 44.5994,33.2 44.6,33.2006 44.6006,33.2" stroke="black" stroke-width="0.5" /><polyline fill="none" points="36.6006,34.2 36.6,34.1994 36.4006,34.0 36.4,33.9994 36.2006,33.8 36.2,33.7994 36.0006,33.6 36.0,33.5994 35.9994,33.6 36.0,33.6006 36.1994,33.8 36.2,33.8006 36.3994,34.0 36.4,34.0006 36.5994,34.2 36.6,34.2006 36.6006,34.2" stroke="black" stroke-width="0.5" /><polyline fill="none" points="41.6006,40.8 41.6006,40.6 41.8,40.4006 41.8006,40.4 41.8006,40.2 41.8006,40.0 42.0,39.8006 42.0006,39.8 42.0006,39.6 42.2,39.4006 42.2006,39.4 42.2006,39.2 42.2006,39.0 42.4,38.8006 42.4006,38.8 42.4006,38.6 42.6,38.4006 42.6006,38.4 42.6006,38.2 42.6006,38.0 42.8,37.8006 42.8006,37.8 42.8006,37.6 43.0,37.4006 43.0006,37.4 43.0006,37.2 43.0006,37.0 43.2,36.8006 43.2006,36.8 43.2006,36.6 43.2006,36.4 43.4,36.2006 43.4006,36.2 43.4006,36.0 43.6,35.8006 43.6006,35.8 43.6006,35.6 43.6006,35.4 43.8,35.2006 43.8006,35.2 43.8006,35.0 44.0,34.8006 44.0006,34.8 44.0006,34.6 44.2,34.4006 44.2006,34.4 44.2006,34.2 44.2006,34.0 44.4,33.8006 44.4006,33.8 44.4006,33.6 44.4,33.5994 44.3994,33.6 44.3994,33.8 44.2,33.9994 44.1994,34.0 44.1994,34.2 44.0,34.3994 43.9994,34.4 43.9994,34.6 43.9994,34.8 43.8,34.9994 43.7994,35.0 43.7994,35.2 43.6,35.3994 43.5994,35.4 43.5994,35.6 43.4,35.7994 43.3994,35.8 43.3994,36.0 43.2,36.1994 43.1994,36.2 43.1994,36.4 43.1994,36.6 43.0,36.7994 42.9994,36.8 42.9994,37.0 42.8,37.1994 42.7994,37.2 42.7994,37.4 42.6,37.5994 42.5994,37.6 42.5994,37.8 42.5994,38.0 42.4,38.1994 42.3994,38.2 42.3994,38.4 42.2,38.5994 42.1994,38.6 42.1994,38.8 42.0,38.9994 41.9994,39.0 41.9994,39.2 41.8,39.3994 41.7994,39.4 41.7994,39.6 41.7994,39.8 41.6,39.9994 41.5994,40.0 41.5994,40.2 41.4,40.3994 41.3994,40.4 41.3994,40.6 41.3994,40.8 41.4,40.8006 41.6,40.8006 41.6006,40.8" stroke="black" stroke-width="0.5" /><polyline fill="none" points="26.4006,40.8 26.4006,40.6 26.4,40.5994 26.2006,40.4 26.2006,40.2 26.2,40.1994 26.0006,40.0 26.0006,39.8 26.0,39.7994 25.8006,39.6 25.8006,39.4 25.8006,39.2 25.8,39.1994 25.6006,39.0 25.6006,38.8 25.6,38.7994 25.4006,38.6 25.4006,38.4 25.4,38.3994 25.2006,38.2 25.2006,38.0 25.2006,37.8 25.2,37.7994 25.0006,37.6 25.0006,37.4 25.0,37.3994 24.8006,37.2 24.8006,37.0 24.8,36.9994 24.6006,36.8 24.6006,36.6 24.6006,36.4 24.6,36.3994 24.4006,36.2 24.4006,36.0 24.4,35.9994 24.2006,35.8 24.2006,35.6 24.2,35.5994 24.0006,35.4 24.0006,35.2 24.0,35.1994 23.8006,35.0 23.8006,34.8 23.8006,34.6 23.8,34.5994 23.6006,34.4 23.6006,34.2 23.6,34.1994 23.4006,34.0 23.4006,33.8 23.4,33.7994 23.3994,33.8 23.3994,34.0 23.4,34.0006 23.5994,34.2 23.5994,34.4 23.6,34.4006 23.7994,34.6 23.7994,34.8 23.7994,35.0 23.8,35.0006 23.9994,35.2 23.9994,35.4 23.9994,35.6 24.0,35.6006 24.1994,35.8 24.1994,36.0 24.2,36.0006 24.3994,36.2 24.3994,36.4 24.3994,36.6 24.4,36.6006 24.5994,36.8 24.5994,37.0 24.6,37.0006 24.7994,37.2 24.7994,37.4 24.7994,37.6 24.8,37.6006 24.9994,37.8 24.9994,38.0 25.0,38.0006 25.1994,38.2 25.1994,38.4 25.1994,38.6 25.2,38.6006 25.3994,38.8 25.3994,39.0 25.4,39.0006 25.5994,39.2 25.5994,39.4 25.5994,39.6 25.6,39.6006 25.7994,39.8 25.7994,40.0 25.7994,40.2 25.8,40.2006 25.9994,40.4 25.9994,40.6 26.0,40.6006 26.1994,40.8 26.2,40.8006 26.4,40.8006 26.4006,40.8" stroke="black" stroke-width="0.5" /><polyline fill="none" points="27.0006,39.6 27.0006,39.4 27.2,39.2006 27.2006,39.2 27.2006,39.0 27.4,38.8006 27.4006,38.8 27.4006,38.6 27.6,38.4006 27.6006,38.4 27.8,38.2006 27.8006,38.2 27.8006,38.0 28.0,37.8006 28.0006,37.8 28.2,37.6006 28.2006,37.6 28.2006,37.4 28.4,37.2006 28.4006,37.2 28.6,37.0006 28.6006,37.0 28.6006,36.8 28.8,36.6006 28.8006,36.6 29.0,36.4006 29.0006,36.4 29.2,36.2006 29.2006,36.2 29.4,36.0006 29.4006,36.0 29.4006,35.8 29.6,35.6006 29.6006,35.6 29.8,35.4006 29.8006,35.4 30.0,35.2006 30.0006,35.2 30.2,35.0006 30.2006,35.0 30.4,34.8006 30.4006,34.8 30.6,34.6006 30.6006,34.6 30.8,34.4006 30.8006,34.4 31.0,34.2006 31.0006,34.2 31.0,34.1994 30.9994,34.2 30.8,34.3994 30.7994,34.4 30.6,34.5994 30.5994,34.6 30.4,34.7994 30.3994,34.8 30.2,34.9994 30.1994,35.0 30.0,35.1994 29.9994,35.2 29.8,35.3994 29.7994,35.4 29.6,35.5994 29.5994,35.6 29.4,35.7994 29.3994,35.8 29.2,35.9994 29.1994,36.0 29.0,36.1994 28.9994,36.2 28.8,36.3994 28.7994,36.4 28.7994,36.6 28.6,36.7994 28.5994,36.8 28.4,36.9994 28.3994,37.0 28.2,37.1994 28.1994,37.2 28.0,37.3994 27.9994,37.4 27.8,37.5994 27.7994,37.6 27.7994,37.8 27.6,37.9994 27.5994,38.0 27.4,38.1994 27.3994,38.2 27.2,38.3994 27.1994,38.4 27.1994,38.6 27.0,38.7994 26.9994,38.8 26.8,38.9994 26.7994,39.0 26.7994,39.2 26.8,39.2006 26.9994,39.4 26.9994,39.6 27.0,39.6006 27.0006,39.6" stroke="black" stroke-width="0.5" /><polyline fill="none" points="40.8006,39.6 40.8006,39.4 40.8006,39.2 40.8006,39.0 40.8006,38.8 40.8,38.7994 40.6006,38.6 40.6,38.5994 40.4006,38.4 40.4006,38.2 40.4,38.1994 40.2006,38.0 40.2,37.9994 40.0006,37.8 40.0,37.7994 39.8006,37.6 39.8,37.5994 39.6006,37.4 39.6006,37.2 39.6,37.1994 39.4006,37.0 39.4,36.9994 39.2006,36.8 39.2,36.7994 39.0006,36.6 39.0,36.5994 38.8006,36.4 38.8,36.3994 38.6006,36.2 38.6,36.1994 38.4006,36.0 38.4,35.9994 38.2006,35.8 38.2006,35.6 38.2,35.5994 38.0006,35.4 38.0,35.3994 37.8006,35.2 37.8,35.1994 37.6006,35.0 37.6,34.9994 37.4,34.9994 37.2006,34.8 37.2,34.7994 37.1994,34.8 37.2,34.8006 37.3994,35.0 37.4,35.0006 37.5994,35.2 37.6,35.2006 37.7994,35.4 37.8,35.4006 37.9994,35.6 38.0,35.6006 38.1994,35.8 38.2,35.8006 38.3994,36.0 38.4,36.0006 38.5994,36.2 38.6,36.2006 38.7994,36.4 38.7994,36.6 38.8,36.6006 38.9994,36.8 39.0,36.8006 39.1994,37.0 39.2,37.0006 39.3994,37.2 39.3994,37.4 39.4,37.4006 39.5994,37.6 39.6,37.6006 39.7994,37.8 39.7994,38.0 39.8,38.0006 39.9994,38.2 40.0,38.2006 40.1994,38.4 40.1994,38.6 40.2,38.6006 40.3994,38.8 40.3994,39.0 40.4,39.0006 40.5994,39.2 40.5994,39.4 40.6,39.4006 40.7994,39.6 40.8,39.6006 40.8006,39.6" stroke="black" stroke-width="0.5" /><polyline fill="none" points="40.0006,42.0 40.0006,41.8 40.0,41.7994 39.8,41.7994 39.6,41.7994 39.4,41.7994 39.2,41.7994 39.0,41.7994 38.8,41.7994 38.6,41.7994 38.4,41.7994 38.2,41.7994 38.0006,41.6 38.0,41.5994 37.8006,41.4 37.8006,41.2 37.8006,41.0 38.0,40.8006 38.0006,40.8 38.0,40.7994 37.8006,40.6 37.8006,40.4 37.8006,40.2 38.0,40.0006 38.0006,40.0 38.0,39.9994 37.8006,39.8 37.8006,39.6 37.8006,39.4 38.0,39.2006 38.0006,39.2 38.0,39.1994 37.8006,39.0 37.8006,38.8 37.8006,38.6 37.8,38.5994 37.6006,38.4 37.6006,38.2 37.6,38.1994 37.4006,38.0 37.4006,37.8 37.4,37.7994 37.3994,37.8 37.3994,38.0 37.3994,38.2 37.3994,38.4 37.3994,38.6 37.3994,38.8 37.3994,39.0 37.3994,39.2 37.3994,39.4 37.3994,39.6 37.3994,39.8 37.3994,40.0 37.3994,40.2 37.3994,40.4 37.3994,40.6 37.3994,40.8 37.3994,41.0 37.3994,41.2 37.3994,41.4 37.3994,41.6 37.2,41.7994 37.0,41.7994 36.8,41.7994 36.6,41.7994 36.4,41.7994 36.2,41.7994 36.0,41.7994 35.8,41.7994 35.6,41.7994 35.4006,41.6 35.4006,41.4 35.4006,41.2 35.4006,41.0 35.4006,40.8 35.4006,40.6 35.4006,40.4 35.4006,40.2 35.4006,40.0 35.4006,39.8 35.4006,39.6 35.4006,39.4 35.4006,39.2 35.4006,39.0 35.4006,38.8 35.4006,38.6 35.4006,38.4 35.4006,38.2 35.4006,38.0 35.4006,37.8 35.4006,37.6 35.4006,37.4 35.4006,37.2 35.4006,37.0 35.4006,36.8 35.4006,36.6 35.4006,36.4 35.4006,36.2 35.4006,36.0 35.4006,35.8 35.4006,35.6 35.4,35.5994 35.2,35.5994 35.0006,35.4 35.0,35.3994 34.8006,35.2 34.8,35.1994 34.7994,35.2 34.7994,35.4 34.7994,35.6 34.7994,35.8 34.7994,36.0 34.7994,36.2 34.7994,36.4 34.7994,36.6 34.7994,36.8 34.7994,37.0 34.7994,37.2 34.7994,37.4 34.7994,37.6 34.7994,37.8 34.7994,38.0 34.7994,38.2 34.7994,38.4 34.7994,38.6 34.7994,38.8 34.7994,39.0 34.7994,39.2 34.7994,39.4 34.7994,39.6 34.7994,39.8 34.7994,40.0 34.7994,40.2 34.7994,40.4 34.7994,40.6 34.7994,40.8 34.7994,41.0 34.7994,41.2 34.7994,41.4 34.7994,41.6 34.6,41.7994 34.4,41.7994 34.2,41.7994 34.0,41.7994 33.8,41.7994 33.6,41.7994 33.4,41.7994 33.2,41.7994 33.0,41.7994 32.8006,41.6 32.8006,41.4 32.8006,41.2 32.8006,41.0 32.8006,40.8 32.8006,40.6 32.8006,40.4 32.8006,40.2 32.8006,40.0 32.8006,39.8 32.8006,39.6 32.8006,39.4 32.8006,39.2 32.8006,39.0 32.8006,38.8 32.8006,38.6 32.8006,38.4 32.8006,38.2 32.8006,38.0 32.8006,37.8 32.8006,37.6 32.8006,37.4 32.8006,37.2 32.8006,37.0 32.8006,36.8 32.8006,36.6 32.8006,36.4 32.8006,36.2 32.8006,36.0 32.8006,35.8 32.8006,35.6 32.8006,35.4 32.8006,35.2 32.8,35.1994 32.7994,35.2 32.6,35.3994 32.5994,35.4 32.4,35.5994 32.3994,35.6 32.3994,35.8 32.3994,36.0 32.3994,36.2 32.3994,36.4 32.3994,36.6 32.3994,36.8 32.3994,37.0 32.3994,37.2 32.3994,37.4 32.3994,37.6 32.3994,37.8 32.3994,38.0 32.3994,38.2 32.3994,38.4 32.3994,38.6 32.3994,38.8 32.3994,39.0 32.3994,39.2 32.3994,39.4 32.3994,39.6 32.3994,39.8 32.3994,40.0 32.3994,40.2 32.3994,40.4 32.3994,40.6 32.3994,40.8 32.3994,41.0 32.3994,41.2 32.3994,41.4 32.3994,41.6 32.2,41.7994 32.0,41.7994 31.8,41.7994 31.6,41.7994 31.4,41.7994 31.2,41.7994 31.0,41.7994 30.8,41.7994 30.6,41.7994 30.4006,41.6 30.4006,41.4 30.4006,41.2 30.4006,41.0 30.4006,40.8 30.4006,40.6 30.4006,40.4 30.4006,40.2 30.4006,40.0 30.4006,39.8 30.4006,39.6 30.4006,39.4 30.4006,39.2 30.4006,39.0 30.4006,38.8 30.4006,38.6 30.4006,38.4 30.4006,38.2 30.4006,38.0 30.4006,37.8 30.4,37.7994 30.3994,37.8 30.2,37.9994 30.1994,38.0 30.1994,38.2 30.0,38.3994 29.9994,38.4 29.9994,38.6 29.8,38.7994 29.7994,38.8 29.7994,39.0 29.7994,39.2 29.7994,39.4 29.7994,39.6 29.7994,39.8 29.7994,40.0 29.7994,40.2 29.7994,40.4 29.7994,40.6 29.7994,40.8 29.7994,41.0 29.7994,41.2 29.7994,41.4 29.7994,41.6 29.6,41.7994 29.4,41.7994 29.2,41.7994 29.0,41.7994 28.8,41.7994 28.6,41.7994 28.4,41.7994 28.2,41.7994 28.0,41.7994 27.8,41.7994 27.7994,41.8 27.7994,42.0 27.8,42.0006 28.0,42.0006 28.2,42.0006 28.4,42.0006 28.6,42.0006 28.8,42.0006 29.0,42.0006 29.2,42.0006 29.4,42.0006 29.6,42.0006 29.8,42.0006 30.0,42.0006 30.2,42.0006 30.4,42.0006 30.6,42.0006 30.8,42.0006 31.0,42.0006 31.2,42.0006 31.4,42.0006 31.6,42.0006 31.8,42.0006 32.0,42.0006 32.2,42.0006 32.4,42.0006 32.6,42.0006 32.8,42.0006 33.0,42.0006 33.2,42.0006 33.4,42.0006 33.6,42.0006 33.8,42.0006 34.0,42.0006 34.2,42.0006 34.4,42.0006 34.6,42.0006 34.8,42.0006 35.0,42.0006 35.2,42.0006 35.4,42.0006 35.6,42.0006 35.8,42.0006 36.0,42.0006 36.2,42.0006 36.4,42.0006 36.6,42.0006 36.8,42.0006 37.0,42.0006 37.2,42.0006 37.4,42.0006 37.6,42.0006 37.8,42.0006 38.0,42.0006 38.2,42.0006 38.4,42.0006 38.6,42.0006 38.8,42.0006 39.0,42.0006 39.2,42.0006 39.4,42.0006 39.6,42.0006 39.8,42.0006 40.0,42.0006 40.0006,42.0" stroke="black" stroke-width="0.5" /><polyline fill="none" points="25.8006,41.2 25.8,41.1994 25.6006,41.0 25.6,40.9994 25.4006,40.8 25.4,40.7994 25.2006,40.6 25.2,40.5994 25.0006,40.4 25.0006,40.2 25.0,40.1994 24.8006,40.0 24.8,39.9994 24.6006,39.8 24.6,39.7994 24.5994,39.8 24.6,39.8006 24.7994,40.0 24.8,40.0006 24.9994,40.2 24.9994,40.4 25.0,40.4006 25.1994,40.6 25.2,40.6006 25.3994,40.8 25.4,40.8006 25.5994,41.0 25.5994,41.2 25.6,41.2006 25.8,41.2006 25.8006,41.2" stroke="black" stroke-width="0.5" /><polyline fill="none" points="42.0006,41.2 42.2,41.0006 42.2006,41.0 42.4,40.8006 42.4006,40.8 42.4006,40.6 42.6,40.4006 42.6006,40.4 42.8,40.2006 42.8006,40.2 43.0,40.0006 43.0006,40.0 43.0,39.9994 42.9994,40.0 42.8,40.1994 42.7994,40.2 42.6,40.3994 42.5994,40.4 42.4,40.5994 42.3994,40.6 42.2,40.7994 42.1994,40.8 42.0,40.9994 41.9994,41.0 41.9994,41.2 42.0,41.2006 42.0006,41.2" stroke="black" stroke-width="0.5" /><polyline fill="none" points="26.6006,42.4 26.8,42.2006 27.0,42.2006 27.0006,42.2 27.2,42.0006 27.2006,42.0 27.2006,41.8 27.2,41.7994 27.0006,41.6 27.0006,41.4 27.0,41.3994 26.8,41.3994 26.6,41.3994 26.4,41.3994 26.3994,41.4 26.2,41.5994 26.1994,41.6 26.1994,41.8 26.1994,42.0 26.1994,42.2 26.2,42.2006 26.4,42.2006 26.5994,42.4 26.6,42.4006 26.6006,42.4" stroke="black" stroke-width="0.5" /><polyline fill="none" points="41.0006,42.4 41.2,42.2006 41.4,42.2006 41.4006,42.2 41.6,42.0006 41.6006,42.0 41.6006,41.8 41.6006,41.6 41.6,41.5994 41.4006,41.4 41.4,41.3994 41.2,41.3994 41.0,41.3994 40.8,41.3994 40.7994,41.4 40.6,41.5994 40.5994,41.6 40.5994,41.8 40.5994,42.0 40.6,42.0006 40.7994,42.2 40.8,42.2006 40.9994,42.4 41.0,42.4006 41.0006,42.4" stroke="black" stroke-width="0.5" /></svg>